<?xml version="1.0" encoding="UTF-8"?>
<svg width="75px" height="74px" viewBox="0 0 75 74" version="1.1" xmlns="http://www.w3.org/2000/svg" xmlns:xlink="http://www.w3.org/1999/xlink">
    <!-- Generator: sketchtool 51.3 (57544) - http://www.bohemiancoding.com/sketch -->
    <title>136C4E45-0346-44B2-A434-0CB2A8953F62</title>
    <desc>Created with sketchtool.</desc>
    <defs></defs>
    <g id="Page-1" stroke="none" stroke-width="1" fill="none" fill-rule="evenodd">
        <g id="dribbble_landing_h975" transform="translate(-1404.000000, -3238.000000)">
            <g id="location" transform="translate(0.000000, 2925.000000)">
                <g id="dribbble" transform="translate(1404.000000, 313.000000)">
                    <path d="M37.5551023,0.087963326 C17.3036389,0.087963326 0.871948191,16.519654 0.871948191,36.7711175 C0.871948191,57.0215225 17.3036389,73.4532132 37.5551023,73.4532132 C57.7663465,73.4532132 74.2371981,57.0215225 74.2371981,36.7711175 C74.2371981,16.519654 57.7663465,0.087963326 37.5551023,0.087963326" id="Fill-1" fill="#E694C0"></path>
                    <path d="M55.0208518,62.7506524 C54.7022728,60.8412953 53.0310561,51.6903518 48.933982,40.4310715 C58.760186,38.8794542 67.35441,41.4259694 68.4276296,41.7837092 C67.0760503,50.4964743 62.0624001,58.0164204 55.0208518,62.7506524 M37.5551023,68.1220425 C30.313516,68.1220425 23.6297075,65.6549074 18.338756,61.5176141 C18.8954755,60.363956 25.260705,48.1097779 42.925434,41.9424695 C43.0048141,41.9033087 43.0450334,41.9033087 43.1244135,41.8630894 C47.541125,53.2821883 49.3319411,62.8702518 49.8092804,65.6157466 C46.0286686,67.246744 41.8913752,68.1220425 37.5551023,68.1220425 M6.20311895,36.8102783 L6.20311895,35.8555998 C7.55681508,35.895819 22.7544091,36.0947986 38.3901815,31.3997274 C39.3056992,33.1503243 40.1407784,34.9411405 40.9366967,36.7308982 C40.5387375,36.8504976 40.1005591,36.970097 39.7026,37.0886381 C23.5503274,42.3012678 14.9561033,56.5441832 14.2406236,57.7380607 C9.26719268,52.2079103 6.20311895,44.8467246 6.20311895,36.8102783 M24.2266462,8.44298854 C25.0617254,9.55748582 30.632095,17.3155723 35.8436663,26.545896 C21.2027918,30.4450489 8.27335322,30.3656687 6.88049622,30.3657902 C8.90945281,20.6580058 15.4736619,12.5813403 24.2266462,8.44298854 M37.5551023,5.49957264 C45.5121684,5.49957264 52.7929156,8.48320781 58.3230659,13.3772586 C57.7663465,14.1731768 53.0310561,20.4992455 41.8913752,24.6756997 C36.7591841,15.2474549 31.0702734,7.52852923 30.1939166,6.3346518 C32.5414522,5.77793236 35.0085872,5.49957264 37.5551023,5.49957264 M61.7840404,16.9969933 C66.1605326,22.3292225 68.7864279,29.131572 68.865808,36.4916994 C67.8317493,36.2927198 57.4879868,34.184383 47.0637857,35.4978599 C46.8245869,34.9803013 46.6256073,34.4235819 46.3874668,33.865804 C45.7503089,32.354406 45.0337707,30.8027887 44.318291,29.3305516 C55.8559309,24.6365388 61.1077216,17.8733502 61.7840404,16.9969933 M37.5551023,0.087963326 C17.3036389,0.087963326 0.871948191,16.519654 0.871948191,36.7711175 C0.871948191,57.0215225 17.3036389,73.4532132 37.5551023,73.4532132 C57.7663465,73.4532132 74.2371981,57.0215225 74.2371981,36.7711175 C74.2371981,16.519654 57.7663465,0.087963326 37.5551023,0.087963326" id="Fill-1" fill="#EE2F6E"></path>
                </g>
            </g>
        </g>
    </g>
</svg>